#!OML:ASF H:\Martial Arts Walks\Project 1\Capture day 1\Session 1\male.ASF
:FULLY-SPECIFIED
:DEGREES
261
root -0.876822 11.4718 11.2783 9.86141 1.94331 -2.01795
lowerback 19.4003 1.64098 -2.28266
upperback -3.50654 1.79302 1.12146
thorax -15.1018 1.0855 2.00629
lowerneck -9.24648 -3.05114 -5.35046
upperneck 7.31303 -3.86225 5.05673
head 3.8929 -1.8006 2.17657
rclavicle 4.62796e-015 -7.87684e-015
rhumerus 40.1114 -2.99596 -62.7861
rradius 94.0127
rwrist 20.6766
rhand 1.19966 -13.9181
rfingers 7.12502
rthumb 26.7389 -42.0487
lclavicle 4.62796e-015 -7.87684e-015
lhumerus 42.578 -5.01441 86.0879
lradius 87.5684
lwrist -35.5587
lhand -11.091 2.09616
lfingers 7.12502
lthumb 14.9329 31.5379
rfemur -74.2696 -5.36018 21.9501
rtibia 108.339
rfoot -33.161 -17.9753
rtoes -13.2472
lfemur -75.2055 11.6904 -17.8756
ltibia 107.477
lfoot -31.3487 16.1126
ltoes -13.2488
262
root -0.876634 11.4726 11.2798 9.87335 1.94425 -2.01238
lowerback 19.3919 1.63979 -2.29574
upperback -3.49853 1.78809 1.1202
thorax -15.0873 1.08414 2.01407
lowerneck -9.25243 -3.06024 -5.35741
upperneck 7.31575 -3.87458 5.06939
head 3.89575 -1.80614 2.18069
rclavicle 2.41151e-014 -4.87022e-015
rhumerus 40.1305 -3.00715 -62.8103
rradius 94.0208
rwrist 20.6744
rhand 1.16823 -13.9095
rfingers 7.12502
rthumb 26.7089 -42.0446
lclavicle 2.41151e-014 -4.87022e-015
lhumerus 42.5997 -5.01153 86.0753
lradius 87.5678
lwrist -35.571
lhand -11.1096 2.09818
lfingers 7.12502
lthumb 14.9149 31.5412
rfemur -74.2752 -5.36179 21.9432
rtibia 108.337
rfoot -33.1671 -17.9739
rtoes -13.2524
lfemur -75.2052 11.6965 -17.8863
ltibia 107.47
lfoot -31.3554 16.1049
ltoes -13.2298
263
root -0.876423 11.4734 11.2815 9.88005 1.94535 -2.00709
lowerback 19.3894 1.64015 -2.30371
upperback -3.4911 1.78606 1.11649
thorax -15.0769 1.0835 2.01511
lowerneck -9.25094 -3.07071 -5.36244
upperneck 7.31366 -3.88891 5.07906
head 3.89593 -1.81289 2.18356
rclavicle 3.62782e-015 -4.19933e-015
rhumerus 40.1401 -3.02189 -62.8342
rradius 94.032
rwrist 20.6632
rhand 1.1518 -13.9055
rfingers 7.12502
rthumb 26.6931 -42.043
lclavicle 3.62782e-015 -4.19933e-015
lhumerus 42.6175 -5.01626 86.0648
lradius 87.565
lwrist -35.5788
lhand -11.1249 2.09767
lfingers 7.12502
lthumb 14.9001 31.5418
rfemur -74.2706 -5.36361 21.9358
rtibia 108.335
rfoot -33.1763 -17.9755
rtoes -13.2564
lfemur -75.1979 11.7034 -17.8961
ltibia 107.464
lfoot -31.3635 16.0997
ltoes -13.2228
264
root -0.876211 11.4742 11.2834 9.88255 1.94723 -2.00514
lowerback 19.3899 1.64084 -2.30456
upperback -3.48352 1.78613 1.11239
thorax -15.0679 1.08317 2.01092
lowerneck -9.2469 -3.08113 -5.36436
upperneck 7.30947 -3.90305 5.08252
head 3.89485 -1.8198 2.18406
rclavicle -5.28332e-015 -5.2181e-016
rhumerus 40.143 -3.03695 -62.8555
rradius 94.044
rwrist 20.651
rhand 1.14433 -13.9078
rfingers 7.12502
rthumb 26.686 -42.0464
lclavicle -5.28332e-015 -5.2181e-016
lhumerus 42.631 -5.02426 86.0555
lradius 87.5607
lwrist -35.5813
lhand -11.1332 2.09369
lfingers 7.12502
lthumb 14.8922 31.5384
rfemur -74.2575 -5.36451 21.9319
rtibia 108.332
rfoot -33.1854 -17.9862
rtoes -13.2759
lfemur -75.1865 11.7133 -17.9021
ltibia 107.459
lfoot -31.3726 16.0976
ltoes -13.2327
265
root -0.876026 11.4749 11.2854 9.88284 1.94957 -2.00526
lowerback 19.3943 1.64177 -2.3015
upperback -3.47789 1.78749 1.10881
thorax -15.0637 1.08317 2.00462
lowerneck -9.24302 -3.08828 -5.36145
upperneck 7.30825 -3.91264 5.07694
head 3.89418 -1.8248 2.1813
rclavicle 9.98582e-015 -1.2921e-015
rhumerus 40.1401 -3.0482 -62.8737
rradius 94.0573
rwrist 20.6422
rhand 1.14798 -13.9143
rfingers 7.12502
rthumb 26.6895 -42.0524
lclavicle 9.98582e-015 -1.2921e-015
lhumerus 42.6372 -5.0338 86.0482
lradius 87.5566
lwrist -35.5767
lhand -11.1301 2.09124
lfingers 7.12502
lthumb 14.8951 31.5357
rfemur -74.2404 -5.36312 21.93
rtibia 108.329
rfoot -33.1894 -18.0071
rtoes -13.3061
lfemur -75.1736 11.7255 -17.9056
ltibia 107.457
lfoot -31.3822 16.1002
ltoes -13.2672
266
root -0.875794 11.4754 11.2876 9.88275 1.95263 -2.0071
lowerback 19.3971 1.64223 -2.29563
upperback -3.47318 1.78915 1.10645
thorax -15.0595 1.08314 1.99802
lowerneck -9.24197 -3.09134 -5.35516
upperneck 7.31211 -3.91658 5.06472
head 3.89502 -1.8272 2.17626
rclavicle -6.01324e-015 6.5102e-015
rhumerus 40.1334 -3.05419 -62.8861
rradius 94.0724
rwrist 20.6387
rhand 1.15447 -13.9233
rfingers 7.12502
rthumb 26.6957 -42.0604
lclavicle -6.01324e-015 6.5102e-015
lhumerus 42.638 -5.04205 86.0407
lradius 87.5528
lwrist -35.5684
lhand -11.1215 2.08616
lfingers 7.12502
lthumb 14.9034 31.53
rfemur -74.2211 -5.36107 21.9294
rtibia 108.326
rfoot -33.193 -18.033
rtoes -13.3464
lfemur -75.1606 11.7368 -17.9067
ltibia 107.456
lfoot -31.3939 16.1034
ltoes -13.3043
